<?xml version="1.0" standalone="no"?><!DOCTYPE svg PUBLIC "-//W3C//DTD SVG 1.1//EN" "http://www.w3.org/Graphics/SVG/1.1/DTD/svg11.dtd"><svg t="1538013853393" class="icon" style="" viewBox="0 0 1024 1024" version="1.1" xmlns="http://www.w3.org/2000/svg" p-id="4815" xmlns:xlink="http://www.w3.org/1999/xlink" width="128" height="128"><defs><style type="text/css"></style></defs><path d="M509.1 290.1c129.4 0 234.6 105.3 234.6 234.6 0 80.7-40.9 154.7-109.5 198.2-25.4 16-40.5 43.4-40.5 73.3v39.3H424.6V796c0-29.8-15.2-57.3-40.5-73.3-73-46.3-114.9-128.6-108.9-214.7 8.1-118.9 108-214.6 227.3-217.9h6.6m0-68.6c-2.9 0-5.7 0-8.7 0.1-154.6 4.3-283.2 127.5-293.8 281.8-8 116.7 50.3 220.1 140.7 277.4 5.3 3.3 8.6 9 8.6 15.3V904h306.4V796c0-6.3 3.3-12 8.6-15.3 84.9-53.7 141.4-148.2 141.4-256.1 0-167.5-135.7-303.1-303.2-303.1z" p-id="4816" fill="#979797"></path><path d="M720.6 835.4H297.7c-18.9 0-34.3 15.4-34.3 34.3s15.4 34.3 34.3 34.3h422.9c18.9 0 34.3-15.4 34.3-34.3 0-18.8-15.5-34.3-34.3-34.3zM667.9 955.4H350.4c-18.9 0-34.3 15.4-34.3 34.3s15.4 34.3 34.3 34.3h317.5c18.9 0 34.3-15.4 34.3-34.3 0-18.8-15.5-34.3-34.3-34.3zM508.9 0c-18.9 0-34.3 15.4-34.3 34.3v91.4c0 18.9 15.4 34.3 34.3 34.3s34.3-15.4 34.3-34.3V34.3c0-18.9-15.4-34.3-34.3-34.3zM162.3 174.7c-8.8 0-17.6 3.3-24.2 10.1-13.4 13.4-13.4 35.2 0 48.5l64.7 64.7c6.6 6.6 15.4 10.1 24.2 10.1s17.6-3.3 24.2-10.1c13.4-13.4 13.4-35.2 0-48.5l-64.7-64.7c-6.7-6.7-15.4-10.1-24.2-10.1zM861.7 173.7c-8.8 0-17.6 3.3-24.2 10.1l-64.7 64.7c-13.4 13.4-13.4 35.2 0 48.5 6.6 6.6 15.4 10.1 24.2 10.1 8.8 0 17.6-3.3 24.2-10.1l64.7-64.7c13.4-13.4 13.4-35.2 0-48.5-6.6-6.8-15.4-10.1-24.2-10.1z" p-id="4817" fill="#979797"></path></svg>