<?xml version="1.0" standalone="no"?><!DOCTYPE svg PUBLIC "-//W3C//DTD SVG 1.1//EN" "http://www.w3.org/Graphics/SVG/1.1/DTD/svg11.dtd"><svg t="1538013504998" class="icon" style="" viewBox="0 0 1024 1024" version="1.1" xmlns="http://www.w3.org/2000/svg" p-id="1852" xmlns:xlink="http://www.w3.org/1999/xlink" width="128" height="128"><defs><style type="text/css"></style></defs><path d="M916.48 337.92h-174.08V281.6C742.4 153.6 640 51.2 512 51.2S281.6 153.6 281.6 281.6v61.44H107.52C76.8 337.92 51.2 363.52 51.2 399.36v517.12c0 30.72 25.6 56.32 56.32 56.32h808.96c30.72 0 56.32-25.6 56.32-56.32V399.36c0-35.84-25.6-61.44-56.32-61.44zM337.92 281.6c0-97.28 76.8-174.08 174.08-174.08s174.08 76.8 174.08 174.08v56.32H337.92V281.6z m578.56 604.16c0 15.36-15.36 30.72-30.72 30.72H138.24c-15.36 0-30.72-15.36-30.72-30.72v-460.8c0-15.36 15.36-30.72 30.72-30.72h747.52c15.36 0 30.72 15.36 30.72 30.72v460.8z" fill="#979797" p-id="1853"></path><path d="M517.12 512c-56.32 0-97.28 46.08-97.28 97.28 0 40.96 25.6 76.8 66.56 92.16v40.96c0 20.48 15.36 30.72 30.72 30.72 20.48 0 30.72-15.36 30.72-30.72v-40.96c35.84-15.36 66.56-51.2 66.56-92.16 0-51.2-40.96-97.28-97.28-97.28z" fill="#979797" p-id="1854"></path></svg>