<?xml version="1.0" standalone="no"?><!DOCTYPE svg PUBLIC "-//W3C//DTD SVG 1.1//EN" "http://www.w3.org/Graphics/SVG/1.1/DTD/svg11.dtd"><svg t="1537933218605" class="icon" style="" viewBox="0 0 1024 1024" version="1.1" xmlns="http://www.w3.org/2000/svg" p-id="3780" xmlns:xlink="http://www.w3.org/1999/xlink" width="128" height="128"><defs><style type="text/css"></style></defs><path d="M986.96609185 424.90412248L694.5298963 93.24341728c-6.34323753-7.24941431-14.23992098-11.13302914-23.04278124-11.13302913-8.80286025 0-17.21735902 3.88361482-23.04278123 11.13302913l-42.71976297 48.67463902-30.93946469 34.95253334c-1.94180741 2.20071506-3.88361482 3.88361482-5.43706074 6.08432986l-4.40143012 5.04869927c-22.52496592-26.02021925-45.56774717-52.04043852-73.14141234-82.46208791l-9.32067556-10.48576c-22.52496592-25.50240395-46.08556247-51.5226232-68.61052839-78.06065777-5.82542222-7.24941431-14.7577363-11.13302914-24.07841185-10.48576-9.32067555 0-18.12353581 4.40143013-24.07841186 11.65084444L34.31537778 424.90412248c-8.80286025 10.48576-11.26248297 26.53803457-5.82542223 39.87177876 5.43706075 13.33374419 17.21735902 22.13660445 29.90383408 22.13660445H137.8784395c6.34323753 0 11.26248297 5.56651457 11.26248297 12.68647506l0.51781531 325.05856c0.51781531 84.14498765 61.36111408 152.36715457 135.4087032 152.36715456h620.99000889v-2.71853037h2.45962272v-70.29342814H284.93798717c-38.31833283 0-70.16397431-35.47034864-70.16397434-78.70792693l-0.5178153-325.05856c0-47.63900839-34.30526419-85.82788741-76.50721184-85.82788739h-4.91924544l258.00147753-316.77351506c17.21735902 19.41807408 34.30526419 38.70669431 54.88842272 61.49056789l3.88361481 4.40143012 68.61052839 77.54284248c-2.45962272 2.71853037-4.91924543 5.56651457-7.89668345 8.28504493l-1.94180742 2.20071507c-12.81592889 12.68647506-25.50240395 26.53803457-36.76488691 43.23757826-22.00715061 33.26963358-27.44421136 76.37775803-13.72210567 113.01319111 10.74466765 28.73874963 31.45728 50.35753876 57.86586073 61.49056791 29.90383408 12.16865975 65.24472889 9.45012939 94.24238619-7.76722963 34.8230795-20.45370469 55.40623803-63.17346765 52.9466153-111.33029136-2.45962272-48.67463902-27.96202667-84.14498765-50.4869926-109.64739161l8.80286026-9.96794468 42.71976296-48.15682371 8.28504494-9.45012938 214.37553778 243.1142874c-41.16631703 4.91924543-72.62359703 44.27320889-72.62359705 91.91221728v211.00973828c0 16.05227457-11.26248297 28.73874963-25.50240394 28.73874964H570.38367605v73.65922764h216.31734519c50.09863111 0 91.26494815-45.95610864 91.26494815-103.04524642V507.4956642c0-9.96794469 7.37886815-18.25298963 16.18172839-18.25298963h69.1283437c13.20429037 0 24.98458864-8.80286025 30.42164938-22.65441975 5.43706075-15.01664395 2.58907653-31.06891852-6.73159901-41.68413234zM518.47269136 382.70217482c-4.78979161-11.65084445-2.58907653-26.53803457 5.82542222-38.18887901 8.54395259-11.13302914 20.71261235-22.26605827 31.32782617-31.84564149 4.2719763-3.75416098 9.5795832-8.54395259 14.36937482-13.20429037 16.44063605 16.44063605 33.39908741 36.11761778 34.43471802 58.90149136 0.51781531 6.86105283 0 29.64492642-19.02971259 39.74232494-14.36937482 7.37886815-31.32782617 8.54395259-45.04993185 3.75416099-10.74466765-2.71853037-18.12353581-9.5795832-21.87769679-19.15916642z m0 0" p-id="3781" fill="#979797"></path></svg>