<?xml version="1.0" standalone="no"?><!DOCTYPE svg PUBLIC "-//W3C//DTD SVG 1.1//EN" "http://www.w3.org/Graphics/SVG/1.1/DTD/svg11.dtd"><svg t="1537935567885" class="icon" style="" viewBox="0 0 1024 1024" version="1.1" xmlns="http://www.w3.org/2000/svg" p-id="9178" xmlns:xlink="http://www.w3.org/1999/xlink" width="128" height="128"><defs><style type="text/css"></style></defs><path d="M544 863.8h-64V736.2h64v127.6z m0-191.6h-64v-128h64v128z m0-192h-64v-128h64v128z m0-192h-64v-128h64v128z" p-id="9179" fill="#979797"></path><path d="M907.3 939.3H116.7C49.1 939.3 0 884.7 0 809.5V671.6c0-29.1 21-53.9 49.9-59 48.8-8.6 84.2-50.9 84.2-100.6 0-49.7-35.4-92-84.2-100.6C21 406.4 0 381.5 0 352.3V201.4C0 137.1 52.4 84.7 116.7 84.7h790.6c64.3 0 116.7 52.4 116.7 116.7v137.7c0 30.7-22.2 57-52.7 62.8-52.9 9.9-91.3 56.2-91.3 110.1 0 53.9 38.4 100.2 91.3 110.1 30.5 5.8 52.7 32.2 52.7 62.8v137.8c0 64.3-52.4 116.6-116.7 116.6zM64 675v134.4c0 39.4 21.2 65.8 52.7 65.8h790.6c29.1 0 52.7-23.6 52.7-52.7V684.9c-83.6-15.4-144-88.1-144-172.8 0-84.7 60.4-157.5 143.6-173l0.4-137.6c0-29.1-23.7-52.7-52.7-52.7H116.7c-29.1 0-52.7 23.7-52.7 52.7V349c77.9 15.2 134.1 83.3 134.1 163 0 79.8-56.2 147.8-134.1 163z" p-id="9180" fill="#979797"></path></svg>