<?xml version="1.0" standalone="no"?><!DOCTYPE svg PUBLIC "-//W3C//DTD SVG 1.1//EN" "http://www.w3.org/Graphics/SVG/1.1/DTD/svg11.dtd"><svg t="1537935749174" class="icon" style="" viewBox="0 0 1024 1024" version="1.1" xmlns="http://www.w3.org/2000/svg" p-id="10789" xmlns:xlink="http://www.w3.org/1999/xlink" width="128" height="128"><defs><style type="text/css"></style></defs><path d="M504 936.8l-8.8-3.2c-289.6-112-323.2-258.4-323.2-358.4v-384l25.6 0.8c201.6 7.2 287.2-84 288-84.8L504 87.2l18.4 20c0.8 0.8 81.6 85.6 266.4 85.6h21.6l25.6-0.8v383.2c0 100-33.6 246.4-323.2 358.4l-8.8 3.2z m-282.4-693.6v332c0 53.6 0 196 282.4 308 282.4-112 282.4-254.4 282.4-308V243.2c-156-0.8-246.4-56-282.4-84.8-36 28-125.6 84-282.4 84.8z m58.4 289.6l51.2-41.6 102.4 76s141.6-146.4 279.2-215.2l19.2 22.4s-171.2 141.6-259.2 330.4L280 532.8z" p-id="10790" fill="#979797"></path></svg>