<?xml version="1.0" standalone="no"?><!DOCTYPE svg PUBLIC "-//W3C//DTD SVG 1.1//EN" "http://www.w3.org/Graphics/SVG/1.1/DTD/svg11.dtd"><svg t="1537933475540" class="icon" style="" viewBox="0 0 1024 1024" version="1.1" xmlns="http://www.w3.org/2000/svg" p-id="5361" xmlns:xlink="http://www.w3.org/1999/xlink" width="128" height="128"><defs><style type="text/css"></style></defs><path d="M937.296 764.014l-292.215-146.03 90.955-132.328a28.211 28.211 0 0 0 4.953-15.963V270.234c0-125.691-100.808-224.147-229.5-224.147-128.705 0-229.514 98.456-229.514 224.147v199.457a28.176 28.176 0 0 0 5.215 16.335l93.694 131.734L75.951 763.808c-9.783 4.679-16.005 14.574-16.005 25.419v126.585c0 15.565 12.621 28.186 28.185 28.186h836.558c15.566 0 28.186-12.62 28.186-28.186V789.227a28.18 28.18 0 0 0-15.579-25.213z m-483.994-42.36l-70.987 30.042-16.79-64.075 20.011-9.587 67.766 43.62z m60.587 35.558l62.25 26.356-36.104 104.059h-61.346l-34.946-100.719 70.146-29.696z m60.59-35.558l66.408-42.745 20.909 10.451-16.346 62.336-70.971-30.042zM338.345 460.692V270.234c0-94.08 76.05-167.777 173.144-167.777 97.081 0 173.13 73.697 173.13 167.777v190.705L580.272 612.752a28.24 28.24 0 0 0-4.059 23.011 28.145 28.145 0 0 0 7.434 12.959l-69.757 44.894-70.386-45.298a28.108 28.108 0 0 0 7.043-12.542 28.206 28.206 0 0 0-4.321-23.396L338.345 460.692zM116.316 806.98l197.436-94.563 22.295 85.08a28.234 28.234 0 0 0 14.822 18.151 28.186 28.186 0 0 0 23.424 0.661l17.425-7.376 27.304 78.693H116.316V806.98z m780.188 80.647h-296.8l28.462-82.031 25.311 10.714a28.185 28.185 0 0 0 23.422-0.659 28.211 28.211 0 0 0 14.822-18.153l21.601-82.39 183.183 91.543v80.976z" p-id="5362" fill="#979797"></path></svg>