<?xml version="1.0" standalone="no"?><!DOCTYPE svg PUBLIC "-//W3C//DTD SVG 1.1//EN" "http://www.w3.org/Graphics/SVG/1.1/DTD/svg11.dtd"><svg t="1537931452682" class="icon" style="" viewBox="0 0 1024 1024" version="1.1" xmlns="http://www.w3.org/2000/svg" p-id="3872" xmlns:xlink="http://www.w3.org/1999/xlink" width="128" height="128"><defs><style type="text/css"></style></defs><path d="M931.78355 229.412128V197.055083c0-96.393738-78.39753-174.768688-175.017067-174.768688H197.84538C101.022624 22.286395 22.331555 100.661345 22.331555 197.055083v630.025314c0 96.280838 73.881544 174.610628 164.562557 174.610628h650.098876c90.793914 0 164.743197-78.35237 164.743197-174.610628V371.89151c-0.04516-58.865888-27.818479-110.731996-69.952635-142.479382z m0 597.668269c0 57.669151-42.518015 104.635413-94.813142 104.635413H186.871533c-52.137067 0-94.655083-46.966262-94.655083-104.635413V197.055083c0-57.782051 47.350121-104.770893 105.62893-104.770893h558.921103a104.951533 104.951533 0 0 1 104.951532 104.770893v2.822491c-8.173936-1.332216-16.302712-2.664432-24.770187-2.664432H267.233517c-19.418743 0-35.224697 15.693054-35.224697 34.953738 0 19.351003 15.805954 34.953738 35.224697 34.953737h569.714311c52.295127 0 94.813142 47.079162 94.813142 104.770893v455.188887h0.02258z m-244.879382-175.152547a34.998897 34.998897 0 1 0 0-69.975215h-140.04075v-25.673385a102.738699 102.738699 0 0 0 30.57323-16.84463l131.189416-104.951533a34.998897 34.998897 0 0 0 5.599824-49.246836 35.156957 35.156957 0 0 0-49.156516-5.464344l-131.460375 105.019273a34.502139 34.502139 0 0 1-43.217994 0l-131.482954-105.109592a35.134377 35.134377 0 0 0-49.156516 5.486924c-11.944785 15.128556-9.641632 37.031092 5.486923 49.156516l131.324896 105.109592c9.325513 7.541698 19.599383 13.028622 30.392591 16.84463v25.673385h-139.97301c-19.260684 0-34.863418 15.670474-34.863418 35.044057 0 19.238104 15.602734 34.931158 34.863418 34.931158h139.97301v69.997795h-139.97301c-19.260684 0-34.863418 15.602734-34.863418 34.885998 0 19.351003 15.602734 35.044057 34.863418 35.044057h139.97301v34.976318a34.998897 34.998897 0 0 0 35.044057 34.908577c19.260684 0 34.863418-15.557574 34.863418-34.908577v-34.976318h140.04075a34.998897 34.998897 0 0 0 35.021477-35.044057c0-19.283264-15.647894-34.885998-35.021477-34.885998h-140.04075v-69.997795h140.04075z" p-id="3873"></path></svg>