<?xml version="1.0" standalone="no"?><!DOCTYPE svg PUBLIC "-//W3C//DTD SVG 1.1//EN" "http://www.w3.org/Graphics/SVG/1.1/DTD/svg11.dtd"><svg t="1537935508243" class="icon" style="" viewBox="0 0 1072 1024" version="1.1" xmlns="http://www.w3.org/2000/svg" p-id="8392" xmlns:xlink="http://www.w3.org/1999/xlink" width="134" height="128"><defs><style type="text/css"></style></defs><path d="M188.806095 268.190476a24.380952 24.380952 0 0 0-24.185905 21.065143L80.554667 899.559619a24.380952 24.380952 0 0 0 24.137143 27.745524h863.378285a24.380952 24.380952 0 0 0 24.137143-27.745524L908.141714 289.255619a24.380952 24.380952 0 0 0-24.185904-21.065143H188.806095z m0-48.761905h695.149715a73.142857 73.142857 0 0 1 72.46019 63.146667l84.114286 610.352762a73.142857 73.142857 0 0 1-72.460191 83.139048H104.69181a73.142857 73.142857 0 0 1-72.460191-83.139048L116.345905 282.575238A73.142857 73.142857 0 0 1 188.806095 219.428571zM755.809524 396.629333a48.761905 48.761905 0 1 1-48.761905 0V241.371429a170.666667 170.666667 0 0 0-341.333333 0v155.257904a48.761905 48.761905 0 1 1-48.761905 0V241.371429a219.428571 219.428571 0 0 1 438.857143 0v155.257904z" p-id="8393" fill="#979797"></path></svg>