<?xml version="1.0" standalone="no"?><!DOCTYPE svg PUBLIC "-//W3C//DTD SVG 1.1//EN" "http://www.w3.org/Graphics/SVG/1.1/DTD/svg11.dtd"><svg t="1537935876075" class="icon" style="" viewBox="0 0 1296 1024" version="1.1" xmlns="http://www.w3.org/2000/svg" p-id="11635" xmlns:xlink="http://www.w3.org/1999/xlink" width="162" height="128"><defs><style type="text/css"></style></defs><path d="M1189.06430908 651.86670693c-7.75089756-7.74116104-20.38992539-7.74116104-26.45626816-7.74116015-43.98342451 0-74.43199073-9.9710042-95.84433282-31.39308457-23.04821075-23.05794815-36.28121309-59.77733994-36.28121396-100.74219961 0-39.5139999 12.21058565-71.76396797 36.77781621-96.37988467 20.61388301-24.04141612 51.79274648-35.72618731 95.33799317-35.72618731 4.03124589 0 8.31566162-1.43138408 12.86298544-2.9504039 2.10325869-0.70108594 5.60869013-1.86956367 6.69926865-1.94746201h4.04098331l2.85303164-2.86276904c7.72168623-7.74116104 7.72168623-15.99839912 7.72168535-26.44653164v-166.31323858C1196.79573271 90.52057812 1168.27515459 62 1079.45142207 62H179.36378545C92.71147256 62 62 92.71147256 62 179.36378545v166.31323857c0 8.26697549 6.54347198 20.35097578 12.63902695 26.44653164 7.74116104 7.75089756 15.99839912 7.75089756 26.44653164 7.75089756 45.79456465 0 77.94715869 8.53962011 101.12195391 26.88471035 21.73367373 21.98684355 31.0230668 53.51625088 31.0230668 105.23109903 0 87.67473047-44.45081543 132.12554678-132.13528331 132.12554677-20.12701816 0-34.1876918 14.06067451-34.18769266 34.1974292v166.32297598c0 88.8334708 28.52057813 117.35404893 117.35404891 117.35404805h900.09737315c88.84320732 0 117.36378545-28.52057813 117.36378545-117.35404805v-166.31323858c-0.0194748-8.24750068-6.55320938-20.33150097-12.65850176-26.45626904z m-60.63422256 192.77924414c0 48.50153613-0.45765352 48.95918964-48.96892793 48.95919054H179.36378545c-48.51127354 0-48.96892705-0.45765352-48.96892706-48.95919054V711.52719981c105.86402403-13.12589268 166.33271338-85.39620029 166.33271338-199.53693721 0-73.10771631-16.91370615-123.36196817-51.72458554-153.60604981-24.75223945-29.29956328-63.28277138-45.00584209-114.61786524-46.73908388V179.36378545c0-48.51127354 0.45765352-48.96892705 48.96892794-48.96892706h900.09737314c48.51127354 0 48.96892705 0.45765352 48.96892705 48.96892706v133.26481231c-49.39736836 6.91348974-88.30765547 24.94698574-109.6713123 50.63400703-37.06993565 37.06993565-56.66140107 88.50240176-56.66140108 148.73739521 0 60.24473086 19.60120283 111.67719698 56.66140108 148.74713261 27.08919404 27.09893144 63.94490859 44.10027246 109.6713123 50.61453312v133.28428534z" p-id="11636" fill="#979797"></path><path d="M815.28796425 438.62937646c14.67412471 0 24.46012002-9.78599531 24.46012091-24.46985742 0-14.66438731-9.78599531-24.45038262-24.46012091-24.45038349H688.10897128l141.85311856-141.86285508c9.78599531-9.78599531 9.78599531-29.34824942 0-39.13424473-9.77625791-9.78599531-24.45038262-9.78599531-34.2363788 0l-166.32297598 166.3132377-166.31323858-166.3229751c-9.79573271-9.78599531-24.46985742-9.78599531-34.25585273 0s-9.78599531 24.46012002 0 34.24611533l141.85311768 141.86285596H443.52724326c-14.68386211 0-24.46985742 9.78599531-24.46985829 24.46012001 0 14.67412471 9.78599531 29.35798682 24.46985829 29.35798682H604.95235244V546.23637881H443.52724326c-14.68386211 0-24.46985742 9.78599531-24.46985829 24.46012002 0 14.67412471 9.78599531 24.46012002 24.46985829 24.46012002H604.95235244v200.55935479c0 14.68386211 9.79573271 24.46985742 24.46012002 24.46985741 14.68386211 0 24.45038262-9.78599531 24.45038262-24.46985742V595.15661885h161.43484658c14.67412471 0 24.46012002-9.78599531 24.4601209-24.46012002 0-14.67412471-9.78599531-24.46012002-24.4601209-24.46012002h-161.44458398V438.62937646h161.43484658z" p-id="11637" fill="#979797"></path></svg>