<?xml version="1.0" standalone="no"?><!DOCTYPE svg PUBLIC "-//W3C//DTD SVG 1.1//EN" "http://www.w3.org/Graphics/SVG/1.1/DTD/svg11.dtd"><svg t="1538013777937" class="icon" style="" viewBox="0 0 1024 1024" version="1.1" xmlns="http://www.w3.org/2000/svg" p-id="4041" xmlns:xlink="http://www.w3.org/1999/xlink" width="128" height="128"><defs><style type="text/css"></style></defs><path d="M883.2 0h-742.4C60.416 0 0 65.024 0 145.408V878.592c0 80.384 60.416 145.408 140.8 145.408H880.64c80.384 0 142.848-65.024 142.848-145.408V145.408C1024 65.024 963.584 0 883.2 0z m-742.4 76.8h742.4c43.52 0 64 25.6 64 68.608v77.824l-870.4-1.536v-76.288C76.8 102.4 97.792 76.8 140.8 76.8z m740.352 870.4H140.8c-43.008 0-64-25.6-64-68.608V299.008l870.4 1.536V888.832c0 32.768-23.04 58.368-66.048 58.368z" fill="#979797" p-id="4042"></path><path d="M535.04 361.984v194.048h199.168v61.952h-199.168v209.408h-61.952V617.984H284.16V556.032h188.928V361.984h61.952z" fill="#979797" p-id="4043"></path></svg>