<?xml version="1.0" standalone="no"?><!DOCTYPE svg PUBLIC "-//W3C//DTD SVG 1.1//EN" "http://www.w3.org/Graphics/SVG/1.1/DTD/svg11.dtd"><svg t="1537932936768" class="icon" style="" viewBox="0 0 1039 1024" version="1.1" xmlns="http://www.w3.org/2000/svg" p-id="2714" xmlns:xlink="http://www.w3.org/1999/xlink" width="129.875" height="128"><defs><style type="text/css"></style></defs><path d="M992.12993 142.953154a152.042031 152.042031 0 0 0-43.789133-6.163866H236.15743a33.901264 33.901264 0 0 0-30.947744 38.524163 40.321958 40.321958 0 0 0 1.926208 7.319591l47.384721 175.413358 38.524163 143.05306A34.286505 34.286505 0 0 0 317.700243 526.653821H321.681073a33.516022 33.516022 0 0 0 7.704833 0h324.501869a33.644436 33.644436 0 0 0 34.286506-27.737397 34.286505 34.286505 0 0 0-37.240025-40.450372H352.37199L283.15691 204.591815h659.533677c7.319591 0 14.510768 0.770483 21.830359 1.155725 4.237658 0 6.035452 2.054622 5.264969 6.29228-1.284139 6.677522-2.054622 13.483457-3.852416 20.032565q-46.35741 169.121077-92.971648 338.370569c-7.704833 28.379467-14.25394 57.015762-21.18829 85.523642a35.570644 35.570644 0 0 1-38.524163 25.682776H272.24173a34.286505 34.286505 0 0 1-33.13078-30.947745 142.154163 142.154163 0 0 0-3.081933-17.977943l-128.413878-464.60141Q87.197332 97.237813 67.293181 25.839697a33.644436 33.644436 0 0 0-35.955886-25.682775A34.286505 34.286505 0 0 0 2.444173 47.027987Q78.465188 320.421133 154.743032 593.942693a545.887395 545.887395 0 0 1 16.822218 66.261561 102.731102 102.731102 0 0 0 100.933308 89.889715h547.299948a101.575377 101.575377 0 0 0 99.135513-82.184882c1.284139-6.420694 1.540967-12.841388 3.338761-19.518909C955.531975 526.653821 989.433238 405.302707 1022.435605 283.56635a535.614285 535.614285 0 0 0 15.281251-68.701424 64.206939 64.206939 0 0 0-45.586926-71.911772zM347.363849 818.66698a102.731102 102.731102 0 1 0 96.438822 109.023382A102.731102 102.731102 0 0 0 347.363849 818.66698z m-5.778625 136.247124a34.158092 34.158092 0 1 1 0-68.187769 34.158092 34.158092 0 0 1 0 68.187769zM750.840253 818.538566a102.731102 102.731102 0 1 0 101.832205 102.731102 102.731102 102.731102 0 0 0-101.832205-102.731102z m0 136.375538A34.158092 34.158092 0 1 1 783.971034 920.884427a34.158092 34.158092 0 0 1-34.158092 34.029677z" fill="#979797" p-id="2715"></path></svg>