<?xml version="1.0" standalone="no"?><!DOCTYPE svg PUBLIC "-//W3C//DTD SVG 1.1//EN" "http://www.w3.org/Graphics/SVG/1.1/DTD/svg11.dtd"><svg t="1538013934099" class="icon" style="" viewBox="0 0 1483 1024" version="1.1" xmlns="http://www.w3.org/2000/svg" p-id="5591" xmlns:xlink="http://www.w3.org/1999/xlink" width="185.375" height="128"><defs><style type="text/css"></style></defs><path d="M1034.593103 448.441379c0-17.655172-10.593103-31.77931-28.248275-31.77931h-293.075862c3.531034-3.531034 3.531034-10.593103 7.062068-14.124138 3.531034-7.062069 7.062069-14.124138 10.593104-24.717241h254.234483c17.655172 0 28.248276-10.593103 28.248276-31.779311 0-17.655172-10.593103-28.248276-31.779311-35.310345h-98.868965c3.531034-3.531034 3.531034-10.593103 7.062069-14.124137 3.531034-10.593103 10.593103-24.717241 17.655172-38.84138V247.172414c7.062069-21.186207-3.531034-35.310345-14.124138-42.372414h-3.531034c-10.593103-3.531034-17.655172-3.531034-24.717242 0-3.531034 3.531034-10.593103 7.062069-14.124138 17.655172-17.655172 42.372414-31.77931 70.62069-38.841379 84.744828h-60.027586c7.062069-28.248276 10.593103-52.965517 14.124138-74.151724V225.986207c0-17.655172-10.593103-31.77931-24.717242-35.310345h-3.531034c-7.062069 0-31.77931 0-35.310345 24.717241 0 7.062069-3.531034 14.124138-3.531034 24.717242-3.531034 17.655172-7.062069 42.372414-14.124138 70.620689h-45.903449v-17.655172c-10.593103-21.186207-17.655172-38.841379-24.717241-52.965517-3.531034-7.062069-7.062069-17.655172-10.593103-21.186207-14.124138-17.655172-28.248276-17.655172-45.903449-14.124138h-3.531034c-21.186207 17.655172-14.124138 35.310345-10.593104 45.903448l3.531035 7.062069c7.062069 14.124138 17.655172 28.248276 24.717241 49.434483h-63.55862c-17.655172 0-31.77931 14.124138-31.779311 35.310345 0 17.655172 10.593103 28.248276 31.779311 28.248276h151.834482l-3.531034 3.531034c-7.062069 14.124138-14.124138 24.717241-17.655173 35.310345h-158.896551c-17.655172 0-28.248276 10.593103-35.310345 31.77931 0 17.655172 14.124138 31.77931 35.310345 31.779311h102.4c-28.248276 21.186207-67.089655 38.841379-116.524138 60.027586-17.655172 10.593103-24.717241 24.717241-14.124138 49.434483 14.124138 21.186207 35.310345 10.593103 45.903448 7.062069 10.593103-3.531034 21.186207-10.593103 28.248276-14.124138 3.531034-3.531034 10.593103-3.531034 14.124138-7.062069 0 3.531034 0 7.062069 3.531034 10.593103 3.531034 7.062069 14.124138 14.124138 24.717242 14.124138h70.620689c-7.062069 70.62069-49.434483 120.055172-130.648275 144.772414-10.593103 0-17.655172 3.531034-21.186207 10.593103-3.531034 3.531034-7.062069 10.593103-3.531035 24.717242 7.062069 17.655172 17.655172 31.77931 35.310345 31.77931 109.462069-31.77931 173.02069-102.4 187.144828-208.331034l165.95862 3.531034c14.124138 0 17.655172 7.062069 17.655173 21.186207 0 3.531034 0 7.062069-3.531035 10.593103v7.062069c-3.531034 38.841379-7.062069 63.558621-10.593103 74.151725 0 10.593103-7.062069 14.124138-10.593104 17.655172-10.593103 7.062069-35.310345 10.593103-109.462069-21.186207h-3.531034c-21.186207 0-31.77931 3.531034-42.372414 14.124138v3.531034c-3.531034 10.593103-7.062069 17.655172-3.531034 24.717242 3.531034 7.062069 7.062069 14.124138 17.655172 17.655172 102.4 52.965517 173.02069 42.372414 215.393103-35.310345 3.531034-14.124138 7.062069-45.903448 10.593104-98.868965V614.4c0-7.062069 3.531034-14.124138 3.531034-21.186207 0-10.593103 0-21.186207-3.531034-28.248276 10.593103 3.531034 17.655172 10.593103 28.248276 14.124138 21.186207 10.593103 35.310345 7.062069 45.903448-14.124138 3.531034-17.655172 0-31.77931-14.124138-42.372414l-3.531034-3.531034c-31.77931-10.593103-60.027586-28.248276-88.275862-45.903448h81.213793c28.248276 7.062069 35.310345-7.062069 35.310344-24.717242z m-130.648275 88.275862h-300.137931c21.186207-14.124138 45.903448-31.77931 67.089655-56.496551h165.95862c17.655172 17.655172 38.841379 35.310345 67.089656 56.496551z" p-id="5592" fill="#979797"></path><path d="M1415.944828 360.165517c21.186207 0 42.372414-17.655172 42.372413-38.841379v-158.896552c0-70.62069-60.027586-134.17931-134.17931-134.17931h-1165.241379c-70.62069 0-134.17931 60.027586-134.179311 134.17931v158.896552c0 21.186207 17.655172 38.841379 38.84138 38.841379 81.213793 0 148.303448 70.62069 148.303448 155.365517 0 81.213793-67.089655 151.834483-148.303448 151.834483-21.186207 0-38.841379 17.655172-38.84138 42.372414V861.572414c0 70.62069 60.027586 134.17931 134.179311 134.17931h1165.241379c70.62069 0 134.17931-60.027586 134.17931-134.17931v-158.896552c0-21.186207-17.655172-38.841379-42.372413-38.841379-81.213793 0-148.303448-70.62069-148.303449-155.365517 0-38.841379 14.124138-74.151724 38.84138-102.4 28.248276-31.77931 67.089655-45.903448 109.462069-45.903449z m-233.048276 151.834483c0 112.993103 81.213793 211.862069 194.206896 233.048276V861.572414c0 28.248276-24.717241 52.965517-52.965517 52.965517h-1165.241379c-28.248276 0-52.965517-24.717241-52.965518-52.965517v-120.055173c105.931034-21.186207 190.675862-120.055172 190.675863-229.517241 0-112.993103-81.213793-208.331034-190.675863-229.517241v-120.055173c0-28.248276 24.717241-49.434483 52.965518-49.434483h1165.241379c28.248276 0 52.965517 24.717241 52.965517 49.434483v120.055173c-112.993103 17.655172-194.206897 112.993103-194.206896 229.517241z" p-id="5593" fill="#979797"></path></svg>