<?xml version="1.0" standalone="no"?><!DOCTYPE svg PUBLIC "-//W3C//DTD SVG 1.1//EN" "http://www.w3.org/Graphics/SVG/1.1/DTD/svg11.dtd"><svg t="1537932613259" class="icon" style="" viewBox="0 0 1024 1024" version="1.1" xmlns="http://www.w3.org/2000/svg" p-id="6154" xmlns:xlink="http://www.w3.org/1999/xlink" width="128" height="128"><defs><style type="text/css"></style></defs><path d="M492.947576 748.325145H232.149835c-12.002886 0-21.732894 9.730008-21.732894 21.732894s9.730008 21.732894 21.732894 21.732894h260.797741c12.002886 0 21.732894-9.730008 21.732895-21.732894s-9.730008-21.732894-21.732895-21.732894z m-260.797741-478.147765h108.67451c12.002886 0 21.732894-9.730008 21.732894-21.732894s-9.730008-21.732894-21.732894-21.732894h-108.67451c-11.735843 0.348361-21.116486 9.945851-21.116486 21.732894 0 11.788047 9.380643 21.384533 21.084361 21.732894h0.032125zM623.36502 574.459984H232.149835c-12.002886 0-21.732894 9.730008-21.732894 21.732894s9.730008 21.732894 21.732894 21.732895H623.36502c12.007906 0 21.741929-9.735027 21.741929-21.74193 0-12.007906-9.735027-21.741929-21.741929-21.741929v0.01807zM210.424973 422.318682c0 12.004894 9.719969 21.741929 21.723858 21.74193h391.215185c12.007906 0 21.741929-9.735027 21.741929-21.74193 0-12.007906-9.735027-21.741929-21.741929-21.741929H232.148831c-12.004894 0-21.723859 9.737035-21.723858 21.741929zM601.62309 31.121569H123.493396c-48.011545 0-86.93258 38.921035-86.93258 86.93258v782.394227c0 48.011545 38.921035 86.93258 86.93258 86.932581H553.692863v-43.448722H123.493396c-24.005773 0-43.466792-19.46102-43.466792-43.466792V118.053145c0-24.005773 19.46102-43.466792 43.466792-43.466792H514.69051v217.331953c0 24.005773 19.46102 43.466792 43.466792 43.466792H775.489255v232.324518h43.466792V270.194447L601.624094 31.120565l-0.001004 0.001004z m-43.466792 260.797741V74.587357h21.723859l195.60709 217.331953H558.155294h0.001004z" p-id="6155" fill="#979797"></path><path d="M622.680345 897.658478h347.407059c9.562353 0 17.314635-7.751278 17.314635-17.314635 0-9.562353-7.751278-17.314635-17.314635-17.314635h-347.407059c-9.562353 0-17.314635 7.751278-17.314635 17.314635 0 9.562353 7.751278 17.314635 17.314635 17.314635z" p-id="6156" fill="#979797"></path><path d="M631.337161 895.012141L808.315482 784.64502c5.333835-3.019796 8.874667-8.654808 8.874667-15.118055 0-9.562353-7.751278-17.314635-17.314635-17.314636-3.275796 0-6.339765 0.910557-8.951969 2.49073L614.021522 865.007937c-5.215373 3.049914-8.663843 8.622682-8.663844 15.0016 0 9.566369 7.75429 17.320659 17.320659 17.320659 3.187451 0 6.174118-0.861365 8.739138-2.363231l-0.080314 0.045176z" p-id="6157" fill="#979797"></path><path d="M961.429584 895.012141L784.451263 784.64502c-5.333835-3.019796-8.874667-8.654808-8.874667-15.118055 0-9.562353 7.751278-17.314635 17.314635-17.314636 3.275796 0 6.339765 0.910557 8.951969 2.49073l176.902024 110.304878c5.215373 3.049914 8.663843 8.622682 8.663843 15.0016 0 9.566369-7.75429 17.320659-17.320659 17.320659-3.187451 0-6.174118-0.861365-8.739137-2.363231l0.080313 0.045176zM639.99498 977.553569v-97.209726c0-9.562353-7.751278-17.314635-17.314635-17.314635-9.562353 0-17.314635 7.751278-17.314635 17.314635v97.209726c0 9.562353 7.751278 17.314635 17.314635 17.314635 9.562353 0 17.314635-7.751278 17.314635-17.314635z" p-id="6158" fill="#979797"></path><path d="M987.401035 977.553569v-97.209726c0-9.562353-7.751278-17.314635-17.314635-17.314635s-17.314635 7.751278-17.314635 17.314635v97.209726c0 9.562353 7.751278 17.314635 17.314635 17.314635s17.314635-7.751278 17.314635-17.314635z" p-id="6159" fill="#979797"></path><path d="M622.680345 994.886275h347.407059c9.567373 0 17.323671-7.756298 17.323671-17.323671 0-9.567373-7.756298-17.323671-17.323671-17.323671h-347.407059c-9.567373 0-17.323671 7.756298-17.32367 17.323671 0 9.567373 7.756298 17.323671 17.32367 17.323671zM796.383875 605.093647c47.821804 0 86.609318 38.030557 86.609317 84.952847 0 46.886149-38.78651 84.916706-86.609317 84.916706-47.821804 0-86.609318-38.030557-86.609318-84.934776s38.78651-84.952847 86.609318-84.952848v0.018071z m0 31.856439c29.87771 0 54.121412 23.757804 54.121411 53.095404 0 29.301459-24.243702 53.059263-54.121411 53.059263-29.87771 0-54.121412-23.757804-54.121412-53.077333s24.225631-53.095404 54.121412-53.095404v0.01807z" p-id="6160" fill="#979797"></path></svg>